
<svg width="111px" height="122px" viewBox="0 0 111 122" version="1.1" xmlns="http://www.w3.org/2000/svg" xmlns:xlink="http://www.w3.org/1999/xlink">
    <!-- Generator: Sketch 48.1 (47250) - http://www.bohemiancoding.com/sketch -->
    <desc>Created with Sketch.</desc>
    <defs></defs>
    <g id="Page-1" stroke="none" stroke-width="1" fill="none" fill-rule="evenodd">
        <g id="if_x-13_1956239" fill-rule="nonzero">
            <path d="M31.9989429,0 C14.3260546,0 0,14.4874033 0,32.3593344 C0,44.0651392 6.14608041,54.3192103 15.3535727,60 C21.165604,56.0617183 28.1489214,53.7633182 35.656569,53.7633182 C41.5129992,53.7633182 47.05018,55.1658768 51.9615474,57.6502869 C59.2979419,51.7214838 64,42.5963012 64,32.3593344 C64,14.4895414 49.6718311,0 31.9989429,0 Z M40.4706815,42.2413855 C39.8956097,43.2826141 39.1133428,44.1292805 38.1281094,44.7728326 C37.1407618,45.4185226 35.9948466,45.8824787 34.6861352,46.1647009 C34.2865449,46.2502227 33.8806118,46.3229163 33.4662218,46.3806436 L33.4662218,48.4331682 L30.5337782,48.4331682 L30.5337782,46.585896 C29.0411285,46.585896 27.6245912,46.4576132 26.2799379,46.2031857 C25.5124707,46.0577985 24.804202,45.8696504 24.1530177,45.6408794 C23.3326947,45.3522432 22.7787652,44.5739942 22.7787652,43.6952571 L22.7787652,40.9628336 C22.7787652,40.1418238 23.6646295,39.6329687 24.362327,40.0563019 C25.0029401,40.4432883 25.6710383,40.7639953 26.3645073,41.0141467 C27.6541905,41.4802409 28.9586733,41.713288 30.2737273,41.713288 C30.3625252,41.713288 30.4470946,41.713288 30.5337782,41.7090119 C31.1955337,41.6961836 31.7832909,41.6256281 32.2949357,41.5016214 C32.7431535,41.392581 33.1342869,41.2493319 33.4662218,41.074012 C33.5613624,41.024837 33.6501602,40.9713858 33.7347296,40.9157966 C34.1216346,40.6656452 34.4091705,40.3705947 34.5994516,40.0327834 C34.7897327,39.694972 34.8848733,39.32509 34.8848733,38.9295514 C34.8848733,38.3929017 34.7326484,37.9139793 34.4281986,37.490646 C34.1808331,37.1464206 33.8615837,36.8235755 33.4662218,36.522111 C33.3774239,36.4515554 33.2822834,36.385276 33.1871428,36.3189965 C32.6628126,35.9619428 32.0391133,35.6155792 31.3181593,35.284182 C31.0644511,35.1665895 30.802286,35.0489969 30.5337782,34.9292663 C30.0411615,34.7133236 29.523174,34.4909668 28.9840441,34.2664719 C26.8592382,33.3727684 25.2735622,32.2780886 24.2312444,30.9867085 C23.1889267,29.6953284 22.6667107,28.1345544 22.6667107,26.3065246 C22.6667107,24.8740334 22.9521324,23.6425186 23.5208616,22.6119802 C24.0895907,21.5835798 24.8634006,20.7347753 25.8444055,20.0698429 C26.8254105,19.4049104 27.9607545,18.9152977 29.2504377,18.6010049 C29.6711704,18.4983786 30.1003601,18.4149948 30.5358924,18.3465773 L30.5358924,16.2855005 L33.468336,16.2855005 L33.468336,18.1327727 C34.8383601,18.1391868 36.0519309,18.2247087 37.115391,18.3914763 C37.6270358,18.4727221 38.1196525,18.5732103 38.5953553,18.6950789 C39.502362,18.925988 40.1408609,19.7469978 40.1408609,20.6898763 L40.1408609,23.1037309 C40.1408609,23.8798418 39.3501371,24.397249 38.6503254,24.0786801 C38.1111955,23.8370809 37.5593803,23.6339664 36.9906511,23.475751 C36.421922,23.3175355 35.8553071,23.1978049 35.2929206,23.1208353 C34.7305342,23.0460036 34.1956328,23.0053808 33.6903307,23.0053808 C33.6163325,23.0053808 33.54022,23.0053808 33.4662218,23.0096568 C32.8573222,23.0203471 32.2991642,23.0866265 31.7917479,23.2084952 C31.3075881,23.3218116 30.8889696,23.475751 30.5337782,23.6703132 C30.4703512,23.704522 30.4090384,23.7387307 30.3498398,23.7750775 C29.9587064,24.0166768 29.6542565,24.3074511 29.4407188,24.6474005 C29.2250669,24.9852118 29.1172409,25.3679222 29.1172409,25.7891173 C29.1172409,26.2509354 29.2377523,26.6614403 29.4787751,27.0249082 C29.7197978,27.3905142 30.0601896,27.7347397 30.5041789,28.0618608 C30.5147501,28.068275 30.5253213,28.0789652 30.5380067,28.0853793 C30.973539,28.4018102 31.4999835,28.713965 32.11734,29.0197057 C32.5338443,29.2270962 32.982062,29.4366247 33.4704503,29.6504294 C33.7241584,29.7616078 33.9884378,29.8749243 34.2611741,29.9882407 C35.350005,30.4500588 36.3267814,30.9375334 37.1936177,31.4570787 C38.0583397,31.974486 38.8025503,32.5603107 39.4220211,33.2124149 C40.0414919,33.8666572 40.5150804,34.6106974 40.8449011,35.4488116 C41.1747217,36.2869258 41.339632,37.2618751 41.339632,38.3757973 C41.3332893,39.9109147 41.0478676,41.1980187 40.4706815,42.2413855 Z" id="Shape" fill="#2F7ABF"></path>
            <path d="M88.5007142,54.0740174 C88.1650418,53.2398085 87.6830506,52.4992352 87.052589,51.8480415 C86.4221273,51.1989759 85.6647126,50.6180089 84.7846484,50.1008845 C83.9045842,49.5858881 82.9083257,49.0985569 81.8001764,48.6388907 C81.5226011,48.5239742 81.2536328,48.4133138 80.9954233,48.3026535 C80.5005217,48.089845 80.0421997,47.8812928 79.6183057,47.6748687 C78.9899958,47.3705526 78.454211,47.0598524 78.0109513,46.7448959 C78.0001925,46.7385117 77.9894338,46.7278713 77.9765233,46.721487 C77.5246566,46.3980182 77.1782255,46.0532686 76.9329264,45.6893662 C76.6897791,45.3254639 76.5649778,44.9168717 76.5649778,44.4593336 C76.5649778,44.0401011 76.6747168,43.659174 76.894195,43.3229368 C77.1115213,42.9866995 77.4213728,42.69728 77.8194458,42.4546785 C77.8818465,42.418501 77.9420954,42.3823236 78.0066478,42.3504023 C78.3681411,42.1567467 78.7941869,42.0035246 79.2869368,41.8907362 C79.8033559,41.7715635 80.3714169,41.7055929 80.9911198,41.6928244 C81.0664309,41.6885682 81.141742,41.6885682 81.2192049,41.6885682 C81.7334722,41.6885682 82.277864,41.7268737 82.8502285,41.8034847 C83.4247448,41.8800958 83.999261,41.9992685 84.5780808,42.1567467 C85.1569005,42.3142249 85.720658,42.5163929 86.2672016,42.7568664 C86.9794296,43.0739509 87.7841827,42.5568265 87.7841827,41.7864601 L87.7841827,39.3838532 C87.7841827,38.44324 87.1343553,37.6281838 86.2112562,37.3983507 C85.7271133,37.2770499 85.2236046,37.17703 84.7050338,37.0961628 C83.6227054,36.9301722 82.3854514,36.8429208 80.9932715,36.8386646 L80.9932715,35 L78.0087995,35 L78.0087995,37.051473 C77.5655398,37.1195717 77.1287353,37.2046951 76.7005378,37.304715 C75.3879726,37.6154153 74.2324849,38.1048746 73.2340746,38.7667088 C72.2378161,39.4285429 71.450277,40.2712642 70.8693055,41.2970007 C70.2904857,42.3227372 70,43.5485137 70,44.97433 C70,46.7938419 70.5314813,48.3473432 71.5922922,49.632706 C72.6531031,50.9180688 74.2669128,52.0076478 76.4294178,52.8971869 C76.9781131,53.1206358 77.5052909,53.3419565 78.0066478,53.556893 C78.2777678,53.6760657 78.5445843,53.7952384 78.8049456,53.910155 C79.5386911,54.240008 80.1713045,54.5847576 80.7070893,54.9401476 C80.8060696,55.0061182 80.9007465,55.0720888 80.9911198,55.1423156 C81.3934963,55.4423755 81.7205618,55.7637162 81.9701643,56.1063377 C82.2800158,56.5255703 82.4349415,57.0043892 82.4349415,57.5385383 C82.4349415,57.9322338 82.3381129,58.3003924 82.1444558,58.6366296 C81.9507986,58.9728669 81.6581611,59.2665425 81.2643916,59.5155284 C81.1783217,59.5708585 81.0879484,59.6219326 80.9911198,59.6730066 C80.6511439,59.8475095 80.2552226,59.9900911 79.7990524,60.0986234 C79.2783298,60.2220523 78.6822961,60.292279 78.0066478,60.3050475 C77.9184262,60.3093037 77.8323563,60.3093037 77.741983,60.3093037 C76.4035968,60.3093037 75.0759694,60.0773426 73.7634042,59.6134202 C73.0576314,59.3623063 72.3776796,59.0430937 71.7257005,58.6600386 C71.0156242,58.240806 70.1140426,58.7451619 70.1140426,59.5623462 L70.1140426,62.2841657 C70.1140426,63.1588083 70.6778001,63.9334309 71.5126776,64.2207222 C72.1754154,64.4484272 72.8962504,64.6356986 73.6773343,64.7804083 C75.0458449,65.0336503 76.4875149,65.1613354 78.0066478,65.1613354 L78.0066478,67 L80.9911198,67 L80.9911198,64.9570393 C81.4128621,64.899581 81.8259973,64.8272262 82.2326774,64.7421028 C83.5646083,64.4611957 84.7330065,63.9994015 85.7357203,63.3567201 C86.7405857,62.7161668 87.5345801,61.8734455 88.1198551,60.8370686 C88.7072818,59.8006916 88.9999193,58.5174569 88.9999193,56.9894926 C89.0042228,55.8786327 88.8363866,54.9082264 88.5007142,54.0740174 Z" id="Shape" fill="#2F7ABF"></path>
            <path d="M78.9759558,18 C74.7441693,18 70.7006973,18.8266931 67,20.3236207 C67.5903342,22.0552362 68.0558307,23.8460522 68.3816783,25.6833829 C71.6274585,24.2689131 75.2096658,23.4802775 78.9759558,23.4802775 C93.6327483,23.4802775 105.513489,35.3520978 105.513489,49.9978857 C105.513489,64.6436736 93.6327483,76.5197225 78.9759558,76.5197225 C75.5693676,76.5197225 72.3151238,75.870631 69.3211349,74.7014205 C70.2563597,76.7501817 71.0053859,78.9004295 71.5534023,81.1310208 C73.9358981,81.6976544 76.4220726,82 78.9759558,82 C96.630969,82 111,67.6438718 111,49.9978857 C110.997884,32.3561282 96.630969,18 78.9759558,18 Z" id="Shape" fill="#3C4752"></path>
            <path d="M44.5007142,94.072749 C44.1650418,93.2385956 43.6830506,92.4980716 43.052589,91.8469211 C42.4221273,91.1978987 41.6647126,90.6169703 40.7846484,90.0998803 C39.9045842,89.5849182 38.9083257,89.0976194 37.8001764,88.6379838 C37.5226011,88.5230749 37.2536328,88.4124219 36.9954233,88.3017689 C36.5005217,88.0889746 36.0421997,87.8804362 35.6183057,87.6740258 C34.9899958,87.36973 34.454211,87.0590504 34.0109513,86.7441149 C34.0001925,86.7377311 33.9894338,86.7270914 33.9765233,86.7207075 C33.5246566,86.3972603 33.1782255,86.0525336 32.9329264,85.6886554 C32.6897791,85.3247772 32.5649778,84.9162123 32.5649778,84.4587046 C32.5649778,84.0394999 32.6747168,83.6585982 32.894195,83.3223833 C33.1115213,82.9861684 33.4213728,82.6967682 33.8194458,82.4541827 C33.8818465,82.4180077 33.9420954,82.3818327 34.0066478,82.3499136 C34.3681411,82.1562708 34.7941869,82.0030589 35.2869368,81.890278 C35.8033559,81.7711132 36.3714169,81.705147 36.9911198,81.6923793 C37.0664309,81.6881234 37.141742,81.6881234 37.2192049,81.6881234 C37.7334722,81.6881234 38.277864,81.7264264 38.8502285,81.8030323 C39.4247448,81.8796382 39.999261,81.998803 40.5780808,82.1562708 C41.1569005,82.3137385 41.720658,82.5158931 42.2672016,82.7563506 C42.9794296,83.073414 43.7841827,82.5584519 43.7841827,81.7860088 L43.7841827,79.3835616 C43.7841827,78.443011 43.1343553,77.628009 42.2112562,77.3981912 C41.7271133,77.2768985 41.2236046,77.1768852 40.7050338,77.0960234 C39.6227054,76.9300439 38.3854514,76.8427982 36.9932715,76.8385424 L36.9932715,75 L34.0087995,75 L34.0087995,77.0534646 C33.5655398,77.1215587 33.1287353,77.2066764 32.7005378,77.3066897 C31.3879726,77.6173693 30.2324849,78.1067961 29.2340746,78.7685862 C28.2378161,79.4303764 27.450277,80.2730416 26.8693055,81.2987099 C26.2904857,82.3243782 26,83.5500731 26,84.9757947 C26,86.7951855 26.5314813,88.3485836 27.5922922,89.6338609 C28.6531031,90.9191382 30.2669128,92.0086448 32.4294178,92.8981248 C32.9781131,93.1215587 33.5052909,93.3428647 34.0066478,93.5577869 C34.2777678,93.6769517 34.5445843,93.7961165 34.8049456,93.9110254 C35.5386911,94.2408565 36.1713045,94.5855832 36.7070893,94.9409496 C36.8060696,95.0069158 36.9007465,95.072882 36.9911198,95.1431041 C37.3934963,95.443144 37.71841,95.7644634 37.9701643,96.1070621 C38.2800158,96.5262668 38.4349415,97.0050539 38.4349415,97.5391674 C38.4349415,97.9328368 38.3381129,98.3009709 38.1444558,98.6371858 C37.9507986,98.9734007 37.6581611,99.2670568 37.2643916,99.5160261 C37.1783217,99.5713526 37.0879484,99.6224232 36.9911198,99.6734938 C36.6511439,99.8479851 36.2552226,99.9905573 35.7990524,100.099082 C35.2783298,100.222503 34.6822961,100.292725 34.0066478,100.305493 C33.9184262,100.309749 33.8323563,100.309749 33.741983,100.309749 C32.4035968,100.309749 31.0759694,100.077803 29.7634042,99.6139114 C29.0576314,99.3628142 28.3776796,99.0436228 27.7257005,98.6605932 C27.0156242,98.2413885 26.1140426,98.7457109 26.1140426,99.5628408 L26.1140426,102.284479 C26.1140426,103.159064 26.6778001,103.933635 27.5126776,104.220907 C28.1754154,104.448597 28.8962504,104.635856 29.6773343,104.780556 C31.0458449,105.033781 32.4875149,105.161458 34.0066478,105.161458 L34.0066478,107 L36.9911198,107 L36.9911198,104.957175 C37.4128621,104.899721 37.8259973,104.827371 38.2326774,104.742253 C39.5646083,104.461365 40.7330065,103.999601 41.7357203,103.356962 C42.7405857,102.716452 43.5345801,101.873786 44.1198551,100.837478 C44.7072818,99.8011704 44.9999193,98.518021 44.9999193,96.9901583 C45.0042228,95.8772443 44.8363866,94.9090305 44.5007142,94.072749 Z" id="Shape" fill="#2F7ABF"></path>
            <path d="M35.0010571,58 C17.3556539,58 3,72.3556539 3,89.9989429 C3,107.644346 17.3556539,122 35.0010571,122 C52.6422318,122 67,107.644346 67,89.9989429 C67,72.3556539 52.6443461,58 35.0010571,58 Z M35.0010571,116.517789 C20.3515246,116.517789 8.48009646,104.642133 8.48009646,89.9968286 C8.48009646,75.3515246 20.3536388,63.4800965 35.0010571,63.4800965 C49.6463612,63.4800965 61.5177893,75.3515246 61.5177893,89.9968286 C61.5177893,104.642133 49.6463612,116.517789 35.0010571,116.517789 Z" id="Shape" fill="#3C4752"></path>
        </g>
    </g>
</svg>