
<svg width="127px" height="143px" viewBox="0 0 127 143" version="1.1" xmlns="http://www.w3.org/2000/svg" xmlns:xlink="http://www.w3.org/1999/xlink">
    <!-- Generator: Sketch 48.1 (47250) - http://www.bohemiancoding.com/sketch -->
    <desc>Created with Sketch.</desc>
    <defs></defs>
    <g id="Page-1" stroke="none" stroke-width="1" fill="none" fill-rule="evenodd">
        <g id="if_x-03_2251213" fill-rule="nonzero">
            <path d="M125.431635,100.967282 C120.882863,92.6126153 112.399207,98.2682604 112.399207,98.2682604 L89.8445914,110.995202 C89.2168562,111.347955 88.6329702,111.798179 88.1137041,112.299459 C65.47139,134.023912 44.5668868,117.117316 44.5668868,117.117316 C58.7163137,122.113871 72.3672451,118.071141 78.4922784,112.991039 C84.0934298,108.532896 83.9018782,103.176627 73.0411372,102.440952 C56.9069595,101.345563 51.5273617,98.4794478 49.7364703,96.625176 C47.8532649,94.673433 45.8362042,92.821482 43.4291169,91.5798857 C21.4029987,80.2384259 0,99.4704041 0,99.4704041 L1.26700952,101.835239 L15.5802938,128.567851 L17.7865981,132.691807 C17.8558336,132.821769 18.0081517,132.886749 18.1443149,132.835693 L18.1466227,132.835693 C20.0367517,132.113943 21.7699468,130.82129 23.3715946,129.523996 C27.1010798,126.511675 30.7220961,126.655561 34.8323765,128.939169 C41.9659401,132.907636 49.3372123,136.43052 56.5238565,140.306157 C58.1001178,141.157869 59.6579164,141.837846 61.1995601,142.336805 C61.2087915,142.339126 61.2203307,142.341447 61.2295621,142.346088 C67.160736,143.680514 72.3718608,142.773105 76.2698191,141.408509 C80.6939671,139.860575 83.4264612,137.723173 83.5972421,137.586249 C83.6041656,137.581608 83.6087813,137.576966 83.6180127,137.572325 L121.674455,112.394609 C123.465347,111.146051 124.76005,109.920699 125.648573,108.751046 C128.090278,105.543782 126.726338,103.3414 125.431635,100.967282 Z" id="Shape" fill="#3C4752"></path>
            <g id="Group" transform="translate(17.000000, 0.000000)" fill="#2F7ABF">
                <path d="M61.1731,29.9602727 C58.6615,18.887 51.8121,9.98981818 45.8873,0.117068182 C40.4271,8.80077273 34.6127,16.7086136 31.165,25.9684773 C29.0582,31.6290682 29.1479,37.3103182 31.3421,42.9456591 C34.4195,50.8535 39.2311,57.7306818 43.8978,64.6927955 C42.9479,60.2166591 42.1912,55.2332273 41.8623,49.8756364 C40.9193,34.4593636 43.9921,23.5903864 45.9241,18.1937727 L48.3276,64.6583636 C52.1985,57.7674091 56.1453,50.9154773 59.7908,43.9074545 C62.0494,39.5713409 62.238,34.6567727 61.1731,29.9602727 Z" id="Shape"></path>
                <path d="M4.3263,82.1061136 C9.1862,81.2728636 14.4808,81.2154773 19.9778,82.5032273 C15.4721,74.9190455 12.6569,68.0510455 11.0699,63.6254091 L28.4947,85.5929091 C28.6166,85.6548864 28.7385,85.7030909 28.8604,85.7650682 C32.1885,87.466 34.7369,89.8555682 36.7908,91.9696818 C36.846,92.0178864 37.8258,92.8373636 41.2321,93.7486591 C41.3218,91.8549091 41.3816,89.9795227 41.3724,88.1087273 C41.3264,78.9521591 37.9201,71.0649773 31.3444,64.6193409 C22.8482,56.2914318 12.2222,51.2552045 1.7825,45.4178636 C1.4513,46.1937273 1.1845,46.5334545 1.173,46.8823636 C0.943,53.7251136 0.3542,60.5839318 0.6371,67.4083182 C0.8533,72.5960455 1.9113,77.6162045 4.3263,82.1061136 Z" id="Shape"></path>
                <path d="M55.5519,95.8030909 C57.5851,91.4279545 60.1243,86.7130909 63.3305,81.9454318 C71.9532,69.1207273 81.0037,62.34225 85.8222,59.2227273 L60.2922,96.4320455 C63.0798,97.0311591 65.1521,97.9722955 66.6747,99.081 C68.1973,98.3694091 69.7383,97.6738864 71.2379,96.9324545 C84.2375,90.5074773 91.5469,80.2995909 91.4388,65.4709545 C91.3905,58.8761136 91.1191,52.2835682 90.9328,45.0689545 C80.3528,50.8351364 70.3731,55.8002045 61.9988,63.3132273 C56.8376,67.9454545 53.2289,73.5876818 51.5959,80.3546818 C50.3953,85.3289318 50.2182,90.3445 50.6161,95.3669545 C52.0973,95.5299318 53.7487,95.6768409 55.5519,95.8030909 Z" id="Shape"></path>
            </g>
        </g>
    </g>
</svg>