
<svg width="108px" height="130px" viewBox="0 0 108 130" version="1.1" xmlns="http://www.w3.org/2000/svg" xmlns:xlink="http://www.w3.org/1999/xlink">
    <!-- Generator: Sketch 48.1 (47250) - http://www.bohemiancoding.com/sketch -->
    <desc>Created with Sketch.</desc>
    <defs></defs>
    <g id="Page-1" stroke="none" stroke-width="1" fill="none" fill-rule="evenodd">
        <g id="if_Ecology_solar_panel_2461708" transform="translate(2.000000, 2.000000)">
            <g id="Group" transform="translate(12.000000, 0.000000)">
                <g transform="translate(0.000000, 20.000000)">
                    <g transform="translate(7.000000, 31.000000)" id="Shape">
                        <g transform="translate(28.000000, 0.000000)">
                            <path d="M0.96,4.264 C0.96,2.032 2.771,0.225 5.002,0.225 C7.231,0.225 9.038,2.032 9.038,4.264 L9.038,66.126 C9.038,68.357 7.23,70.166 5.002,70.166 C2.771,70.166 0.96,68.357 0.96,66.126 L0.96,4.264 Z" fill="#678B99" fill-rule="nonzero"></path>
                            <path d="M0.96,4.264 L0.96,66.126 C0.96,67.616 1.777,68.904 2.981,69.605 C4.184,68.905 5.001,67.617 5.001,66.126 L5.001,4.264 C5.001,2.772 4.185,1.485 2.981,0.784 C1.777,1.485 0.96,2.772 0.96,4.264 Z" fill="#7799AA" fill-rule="nonzero"></path>
                            <path d="M0.96,4.264 C0.96,2.032 2.771,0.225 5.002,0.225 C7.231,0.225 9.038,2.032 9.038,4.264 L9.038,66.126 C9.038,68.357 7.23,70.166 5.002,70.166 C2.771,70.166 0.96,68.357 0.96,66.126 L0.96,4.264 Z" stroke="#33363A" stroke-width="3" stroke-linecap="round" stroke-linejoin="round"></path>
                        </g>
                        <g transform="translate(0.000000, 65.000000)">
                            <path d="M60.47,0.624 C62.981,0.624 65.014,2.659 65.014,5.169 C65.014,7.677 62.981,9.709 60.47,9.709 L5.53,9.709 C3.021,9.709 0.985,7.677 0.985,5.169 C0.985,2.659 3.021,0.624 5.53,0.624 L60.47,0.624 Z" fill="#678B99" fill-rule="nonzero"></path>
                            <path d="M60.47,0.624 L5.53,0.624 C3.853,0.624 2.404,1.544 1.617,2.895 C2.404,4.249 3.853,5.166 5.53,5.166 L60.47,5.166 C62.148,5.166 63.596,4.248 64.384,2.895 C63.596,1.543 62.147,0.624 60.47,0.624 Z" fill="#7799AA" fill-rule="nonzero"></path>
                            <path d="M60.47,0.624 C62.981,0.624 65.014,2.659 65.014,5.169 C65.014,7.677 62.981,9.709 60.47,9.709 L5.53,9.709 C3.021,9.709 0.985,7.677 0.985,5.169 C0.985,2.659 3.021,0.624 5.53,0.624 L60.47,0.624 Z" stroke="#33363A" stroke-width="3" stroke-linecap="round" stroke-linejoin="round"></path>
                        </g>
                    </g>
                    <g transform="translate(0.000000, 9.000000)">
                        <g>
                            <g id="Rectangle-path">
                                <rect fill="#0A7BE2" fill-rule="nonzero" x="0.134" y="0.086" width="79.732" height="36.813"></rect>
                                <rect fill="#0C4ABA" fill-rule="nonzero" x="0.134" y="25.551" width="79.732" height="11.349"></rect>
                                <rect fill="#059CE8" fill-rule="nonzero" x="0.134" y="0.086" width="79.732" height="13.316"></rect>
                                <rect fill="#45CAFF" fill-rule="nonzero" x="0.134" y="0.086" width="79.732" height="6.658"></rect>
                                <rect stroke="#33363A" stroke-width="3" stroke-linecap="round" stroke-linejoin="round" x="0.134" y="0.086" width="79.732" height="36.813"></rect>
                            </g>
                            <g transform="translate(16.000000, 0.000000)" id="Shape" stroke="#33363A" stroke-linecap="round" stroke-linejoin="round" stroke-width="3">
                                <path d="M0.879,0.086 L0.879,36.9"></path>
                                <path d="M24,0.086 L24,36.9"></path>
                                <path d="M47.121,0.086 L47.121,36.9"></path>
                            </g>
                            <path d="M0.684,18.494 L79.316,18.494" id="Shape" stroke="#33363A" stroke-width="3" stroke-linecap="round" stroke-linejoin="round"></path>
                        </g>
                        <g transform="translate(0.000000, 36.000000)">
                            <g id="Rectangle-path">
                                <rect fill="#0A7BE2" fill-rule="nonzero" x="0.134" y="0.9" width="79.732" height="36.813"></rect>
                                <rect fill="#FFBF31" fill-rule="nonzero" x="0.134" y="26.366" width="79.732" height="11.348"></rect>
                                <rect fill="#059CE8" fill-rule="nonzero" x="0.134" y="0.9" width="79.732" height="13.316"></rect>
                                <rect fill="#45CAFF" fill-rule="nonzero" x="0.134" y="0.9" width="79.732" height="6.659"></rect>
                                <rect stroke="#33363A" stroke-width="3" stroke-linecap="round" stroke-linejoin="round" x="0.134" y="0.9" width="79.732" height="36.813"></rect>
                            </g>
                            <g transform="translate(16.000000, 0.000000)" id="Shape" stroke="#33363A" stroke-linecap="round" stroke-linejoin="round" stroke-width="3">
                                <path d="M0.879,0.9 L0.879,37.713"></path>
                                <path d="M24,0.9 L24,37.713"></path>
                                <path d="M47.121,0.9 L47.121,37.713"></path>
                            </g>
                            <path d="M0.684,19.307 L79.316,19.307" id="Shape" stroke="#33363A" stroke-width="3" stroke-linecap="round" stroke-linejoin="round"></path>
                        </g>
                    </g>
                    <g>
                        <g>
                            <g id="Rectangle-path">
                                <rect fill="#0A7BE2" fill-rule="nonzero" x="0.134" y="0.514" width="79.732" height="36.813"></rect>
                                <rect fill="#0C4ABA" fill-rule="nonzero" x="0.134" y="25.979" width="79.732" height="11.349"></rect>
                                <rect fill="#059CE8" fill-rule="nonzero" x="0.134" y="0.514" width="79.732" height="13.316"></rect>
                                <rect fill="#45CAFF" fill-rule="nonzero" x="0.134" y="0.514" width="79.732" height="6.658"></rect>
                                <rect stroke="#33363A" stroke-width="3" stroke-linecap="round" stroke-linejoin="round" x="0.134" y="0.514" width="79.732" height="36.813"></rect>
                            </g>
                            <g transform="translate(16.000000, 0.000000)" id="Shape" stroke="#33363A" stroke-linecap="round" stroke-linejoin="round" stroke-width="3">
                                <path d="M0.879,0.514 L0.879,37.328"></path>
                                <path d="M24,0.514 L24,37.328"></path>
                                <path d="M47.121,0.514 L47.121,37.328"></path>
                            </g>
                            <path d="M0.684,18.92 L79.316,18.92" id="Shape" stroke="#33363A" stroke-width="3" stroke-linecap="round" stroke-linejoin="round"></path>
                        </g>
                        <g transform="translate(0.000000, 37.000000)">
                            <g id="Rectangle-path">
                                <rect fill="#0A7BE2" fill-rule="nonzero" x="0.134" y="0.328" width="79.732" height="36.813"></rect>
                                <rect fill="#0C4ABA" fill-rule="nonzero" x="0.134" y="25.792" width="79.732" height="11.35"></rect>
                                <rect fill="#059CE8" fill-rule="nonzero" x="0.134" y="0.328" width="79.732" height="13.316"></rect>
                                <rect fill="#45CAFF" fill-rule="nonzero" x="0.134" y="0.328" width="79.732" height="6.658"></rect>
                                <rect stroke="#33363A" stroke-width="3" stroke-linecap="round" stroke-linejoin="round" x="0.134" y="0.328" width="79.732" height="36.813"></rect>
                            </g>
                            <g transform="translate(16.000000, 0.000000)" id="Shape" stroke="#33363A" stroke-linecap="round" stroke-linejoin="round" stroke-width="3">
                                <path d="M0.879,0.328 L0.879,37.141"></path>
                                <path d="M24,0.328 L24,37.141"></path>
                                <path d="M47.121,0.328 L47.121,37.141"></path>
                            </g>
                            <path d="M0.684,18.735 L79.316,18.735" id="Shape" stroke="#33363A" stroke-width="3" stroke-linecap="round" stroke-linejoin="round"></path>
                        </g>
                    </g>
                </g>
                <g transform="translate(18.000000, 0.000000)" id="Shape" stroke="#33363A" stroke-linecap="round" stroke-linejoin="round" stroke-width="3">
                    <g transform="translate(22.000000, 0.000000)">
                        <path d="M0,16.393 L0,11.036"></path>
                        <path d="M0,7.083 L0,4.944"></path>
                        <path d="M0,0.292 L0,0.393"></path>
                    </g>
                    <g transform="translate(0.000000, 8.000000)">
                        <g>
                            <path d="M12.004,11.407 L8.216,7.618"></path>
                            <path d="M5.422,4.825 L3.908,3.311"></path>
                            <path d="M0.618,0.022 L0.689,0.092"></path>
                        </g>
                        <g transform="translate(31.000000, 0.000000)">
                            <path d="M0.996,11.407 L4.784,7.618"></path>
                            <path d="M7.577,4.825 L9.091,3.311"></path>
                            <path d="M12.382,0.022 L12.311,0.092"></path>
                        </g>
                    </g>
                </g>
            </g>
            <g id="Group" transform="translate(0.000000, 125.000000)" stroke="#33363A" stroke-linecap="round" stroke-linejoin="round" stroke-width="3">
                <g id="Shape">
                    <path d="M28.295,0.708 L14.404,0.708"></path>
                    <path d="M9.279,0.708 L6.504,0.708"></path>
                    <path d="M0.471,0.708 L0.604,0.708"></path>
                </g>
                <g transform="translate(75.000000, 0.000000)" id="Shape">
                    <path d="M0.705,0.708 L14.596,0.708"></path>
                    <path d="M19.721,0.708 L22.496,0.708"></path>
                    <path d="M28.529,0.708 L28.396,0.708"></path>
                </g>
            </g>
        </g>
    </g>
</svg>